<svg width="169" height="38" viewBox="0 0 169 38" fill="none" xmlns="http://www.w3.org/2000/svg">
<path d="M4.53906 36.8359C3.96094 37.2578 3.29688 37.4688 2.54688 37.4688C1.8125 37.4688 1.21875 37.2812 0.765625 36.9062C0.328125 36.5156 0.109375 36.0703 0.109375 35.5703C0.109375 35.0703 0.1875 34.7031 0.34375 34.4688C0.796875 34.7344 1.51562 34.8672 2.5 34.8672C2.89062 34.8672 3.32031 34.6719 3.78906 34.2812C4.25781 33.875 4.63281 33.3203 4.91406 32.6172V21.625C4.91406 20.8906 4.75781 20.3438 4.44531 19.9844C3.97656 19.4219 3.17969 18.8672 2.05469 18.3203C3.19531 17.7734 3.91406 17.3203 4.21094 16.9609C4.67969 16.3672 4.91406 15.7031 4.91406 14.9688L4.9375 4.75C4.5625 3.76562 3.73438 3.27344 2.45312 3.27344C1.79688 3.27344 1.3125 3.40625 1 3.67188C0.84375 3.46875 0.765625 3.20312 0.765625 2.875C0.765625 2.54688 0.835938 2.25 0.976562 1.98438C1.11719 1.71875 1.3125 1.48438 1.5625 1.28125C2.09375 0.875 2.80469 0.671875 3.69531 0.671875C4.58594 0.671875 5.32031 0.929688 5.89844 1.44531C6.41406 0.929688 7.01562 0.671875 7.70312 0.671875C8.39062 0.671875 8.97656 0.960938 9.46094 1.53906C10.0703 0.960938 10.6094 0.671875 11.0781 0.671875C11.5469 0.671875 11.9062 0.710938 12.1562 0.789062C12.4062 0.867188 12.6562 1.01562 12.9062 1.23438C13.4062 1.625 13.9297 2.41406 14.4766 3.60156L23.4531 22.2344L30.8594 3.97656L31.5156 2.45312C31.9062 1.59375 32.2734 1.08594 32.6172 0.929688C32.9609 0.757812 33.3594 0.671875 33.8125 0.671875C34.2812 0.671875 34.7578 0.84375 35.2422 1.1875C35.8359 0.84375 36.6094 0.671875 37.5625 0.671875C38.5312 0.671875 39.3672 0.929688 40.0703 1.44531C40.6953 0.929688 41.3438 0.671875 42.0156 0.671875C42.7031 0.671875 43.2344 0.726562 43.6094 0.835938C44 0.945312 44.3359 1.09375 44.6172 1.28125C45.2109 1.70312 45.5078 2.22656 45.5078 2.85156C45.5078 3.16406 45.4219 3.4375 45.25 3.67188C44.9062 3.40625 44.4688 3.27344 43.9375 3.27344C42.75 3.27344 41.9453 3.82812 41.5234 4.9375V14.9688C41.5234 15.7344 41.6875 16.3047 42.0156 16.6797C42.5312 17.2891 43.3203 17.8359 44.3828 18.3203C43.2422 18.8828 42.5156 19.3438 42.2031 19.7031C41.75 20.2656 41.5234 20.9062 41.5234 21.625V33.0859C42.0547 34.2734 43.0156 34.8672 44.4062 34.8672C44.9375 34.8672 45.375 34.7344 45.7188 34.4688C45.8906 34.7031 45.9766 34.9766 45.9766 35.2891C45.9766 35.5859 45.8828 35.8672 45.6953 36.1328C45.5234 36.3984 45.2812 36.625 44.9688 36.8125C44.25 37.25 43.4297 37.4688 42.5078 37.4688C41.5859 37.4688 40.7266 37.2188 39.9297 36.7188C39.1953 37.2188 38.3594 37.4688 37.4219 37.4688C36.4219 37.4688 35.5391 37.2188 34.7734 36.7188C33.9766 37.2188 33.2344 37.4688 32.5469 37.4688C31.875 37.4688 31.3203 37.4062 30.8828 37.2812C30.4453 37.1719 30.0625 37.0156 29.7344 36.8125C29.0625 36.4062 28.7266 35.8984 28.7266 35.2891C28.7266 34.9766 28.8125 34.7031 28.9844 34.4688C29.3281 34.7344 29.7656 34.8672 30.2969 34.8672C31.6875 34.8672 32.6484 34.2734 33.1797 33.0859V7.46875L24.0391 30.1094L23.0312 32.4062C22.5469 33.5 22.2031 34.1172 22 34.2578C21.8125 34.3984 21.6562 34.4688 21.5312 34.4688C21.1406 34.4688 20.8672 34.4297 20.7109 34.3516L8.19531 9.67188V32.5938C8.49219 33.3125 8.89844 33.875 9.41406 34.2812C9.92969 34.6719 10.5078 34.8672 11.1484 34.8672C11.7891 34.8672 12.3359 34.7344 12.7891 34.4688C12.9609 34.75 13.0469 35.1406 13.0469 35.6406C13.0469 36.125 12.8047 36.5547 12.3203 36.9297C11.8359 37.2891 11.2109 37.4688 10.4453 37.4688C9.67969 37.4688 8.97656 37.2734 8.33594 36.8828C7.77344 37.2734 7.125 37.4688 6.39062 37.4688C5.67188 37.4688 5.05469 37.2578 4.53906 36.8359ZM11.5 7.67969C11.3438 7.91406 11.2656 8.25 11.2656 8.6875C11.2656 9.95312 11.7969 11.6328 12.8594 13.7266L21.3906 30.7656C21.5 30.625 21.5547 30.3281 21.5547 29.875C21.5547 28.5156 20.9062 26.5234 19.6094 23.8984L11.5 7.67969ZM35.4297 30.7891C36.2109 30.4922 36.6406 29.4688 36.7188 27.7188C36.8125 25.9688 36.8594 23.5469 36.8594 20.4531C36.8594 17.3594 36.8516 15.3047 36.8359 14.2891C36.8359 13.2578 36.8281 12.4297 36.8125 11.8047C36.7656 9.96094 36.5859 8.85156 36.2734 8.47656C35.9766 8.08594 35.6953 7.82812 35.4297 7.70312V30.7891ZM7.86719 31.0938C7.86719 31.2188 7.875 31.3125 7.89062 31.375L7.86719 31.0938ZM5.24219 31.0938C5.22656 31.1562 5.21875 31.25 5.21875 31.375L5.24219 31.0938ZM59.7846 14.68C62.6006 14.68 64.8086 15.704 66.4086 17.752C68.0406 19.768 68.8406 22.504 68.8086 25.96L55.5606 26.392C55.7846 28.28 56.4406 29.72 57.5286 30.712C58.6166 31.704 60.0566 32.2 61.8486 32.2C64.3446 32.2 66.3766 31.512 67.9446 30.136L68.8086 30.904C67.6886 33.048 66.1686 34.728 64.2486 35.944C62.3606 37.128 60.3446 37.72 58.2006 37.72C55.2886 37.72 52.9686 36.76 51.2406 34.84C49.5446 32.888 48.6966 30.264 48.6966 26.968C48.6966 25.016 49.0806 23.08 49.8486 21.16C50.6486 19.24 51.6566 17.64 52.8726 16.36C53.7046 15.88 54.7766 15.48 56.0886 15.16C57.4006 14.84 58.6326 14.68 59.7846 14.68ZM61.7046 24.376C61.6726 22.136 61.3526 20.36 60.7446 19.048C60.1366 17.736 59.2726 16.952 58.1526 16.696C57.3526 17.528 56.6966 18.696 56.1846 20.2C55.7046 21.672 55.4646 23.192 55.4646 24.76V24.904L61.7046 24.376ZM94.1609 33.688L87.1529 37.48C86.2889 36.968 85.6489 36.296 85.2329 35.464C84.8489 34.6 84.6249 33.496 84.5609 32.152L79.8089 37.72C77.9529 37.72 76.3049 37.304 74.8649 36.472C73.4569 35.608 72.3529 34.44 71.5529 32.968C70.7529 31.464 70.3529 29.768 70.3529 27.88C70.3529 26.248 70.6249 24.52 71.1689 22.696C71.7129 20.872 72.3689 19.448 73.1369 18.424C73.7449 17.56 74.8489 16.728 76.4489 15.928C78.0489 15.096 79.3929 14.68 80.4809 14.68C81.4409 14.68 82.7529 14.84 84.4169 15.16L84.3209 6.712L82.4969 7.096L82.0169 5.704L90.8969 3.016L91.5689 4.168L91.2809 29.032C91.2809 30.184 91.3449 31.048 91.4729 31.624C91.6009 32.168 91.8249 32.648 92.1449 33.064L93.5849 32.392L94.1609 33.688ZM77.2649 25C77.2649 26.472 77.5049 27.752 77.9849 28.84C78.4649 29.928 79.0889 30.76 79.8569 31.336C80.6569 31.912 81.5049 32.2 82.4009 32.2L84.5609 30.04L84.4649 20.344C82.3849 19.352 80.3849 18.68 78.4649 18.328C77.6649 20.152 77.2649 22.376 77.2649 25ZM97.1815 5.272L103.326 3.88V9.352L97.1815 10.264V5.272ZM103.806 35.464L105.582 35.608V37H95.2615V35.608L97.0375 35.464L96.8935 18.376L95.0695 18.76L94.5895 17.368L103.278 14.68L103.95 15.832L103.806 35.464ZM131.813 33.784L125.141 37.576C124.117 37.032 123.365 36.296 122.885 35.368C122.405 34.408 122.165 33.192 122.165 31.72L118.037 37.72C115.029 37.72 112.805 37 111.365 35.56C109.925 34.088 109.205 31.832 109.205 28.792V16.936L107.429 16.792V15.4H115.973V26.872C115.973 28.312 116.341 29.432 117.077 30.232C117.845 31 118.853 31.4 120.101 31.432L122.165 29.512V16.936L120.437 16.792V15.4H128.933V28.936C128.933 30.12 128.997 31 129.125 31.576C129.285 32.152 129.525 32.648 129.845 33.064L131.285 32.344L131.813 33.784ZM168.038 35.608V37H157.766V35.608L159.542 35.464V25.336C159.542 23.928 159.174 22.84 158.438 22.072C157.734 21.272 156.742 20.856 155.462 20.824L153.686 22.6V23.416V35.464L155.414 35.608V37H145.142V35.608L146.918 35.464V25.336C146.918 23.928 146.55 22.84 145.814 22.072C145.11 21.304 144.118 20.904 142.838 20.872L141.254 22.456L141.062 35.464L142.838 35.608V37H132.518V35.608L134.294 35.464L134.15 18.28L132.326 18.712L131.846 17.272L139.43 14.92L141.11 20.296L145.094 14.584C147.558 14.584 149.462 15.08 150.806 16.072C152.182 17.064 153.062 18.6 153.446 20.68L157.718 14.536C160.662 14.536 162.822 15.256 164.198 16.696C165.606 18.136 166.31 20.376 166.31 23.416V35.464L168.038 35.608Z" fill="black"/>
</svg>
