<?xml version="1.0" standalone="no"?>
<!DOCTYPE svg PUBLIC "-//W3C//DTD SVG 20010904//EN"
 "http://www.w3.org/TR/2001/REC-SVG-20010904/DTD/svg10.dtd">
<svg version="1.0" xmlns="http://www.w3.org/2000/svg"
 width="300.000000pt" height="300.000000pt" viewBox="0 0 300.000000 300.000000"
 preserveAspectRatio="xMidYMid meet">
<metadata>
Created by potrace 1.10, written by Peter Selinger 2001-2011
</metadata>
<g transform="translate(0.000000,300.000000) scale(0.100000,-0.100000)"
fill="#000000" stroke="none">
<path d="M1413 2497 c-43 -27 -55 -40 -70 -82 -18 -48 -22 -51 -148 -126 -72
-43 -135 -78 -142 -78 -7 -1 -18 9 -24 22 -6 12 -13 24 -15 26 -6 7 -115 -61
-129 -82 -13 -18 -15 -96 -15 -559 0 -352 -3 -539 -10 -543 -10 -6 -40 -70
-40 -86 0 -5 5 -9 10 -9 6 0 10 7 10 15 0 19 16 19 24 0 10 -27 55 -38 82 -20
13 8 24 20 24 26 0 6 -7 3 -16 -6 -9 -9 -23 -14 -31 -11 -8 3 -21 6 -28 6 -21
0 -23 17 -15 175 6 137 9 155 35 210 17 35 53 84 87 118 l58 59 -1 171 c0 119
-4 163 -10 142 -5 -16 -9 -86 -10 -154 -1 -124 -10 -178 -29 -166 -5 3 -15 -5
-22 -19 -20 -44 -28 -29 -30 57 l-2 82 -5 -92 c-6 -86 -20 -127 -38 -109 -5 4
-9 157 -10 339 -1 310 0 333 18 358 25 36 75 56 100 41 10 -7 28 -12 40 -12
21 0 89 28 99 40 3 4 37 24 75 45 83 45 113 70 130 110 18 40 45 71 73 79 21
7 22 5 22 -53 0 -55 -2 -61 -32 -86 l-33 -26 32 15 c48 24 55 21 39 -18 -12
-30 -13 -34 0 -29 23 9 17 -33 -8 -51 -22 -15 -21 -15 10 -1 l33 16 -3 147
c-3 169 -3 169 -85 119z"/>
<path d="M1903 2457 c-9 -14 -259 -163 -283 -169 -8 -2 -20 -8 -26 -14 -7 -6
-36 -26 -65 -44 -28 -19 -47 -36 -40 -38 6 -2 73 31 149 75 75 43 142 79 149
81 11 3 29 -35 21 -43 -6 -7 -227 -135 -348 -203 -63 -35 -146 -84 -185 -107
-120 -73 -185 -105 -186 -92 0 7 -5 -1 -11 -16 -5 -16 -8 -31 -5 -34 3 -2 153
81 334 185 180 104 385 222 456 262 117 67 127 75 127 102 0 45 -17 68 -50 68
-16 0 -33 -6 -37 -13z"/>
<path d="M1210 2355 c-7 -9 -10 -18 -7 -21 6 -7 47 18 47 28 0 14 -27 9 -40
-7z"/>
<path d="M1130 2311 c-13 -26 -13 -31 5 -31 12 0 35 28 35 44 0 14 -30 4 -40
-13z"/>
<path d="M1060 2275 c-6 -8 -10 -22 -8 -31 3 -17 4 -17 21 0 18 18 23 46 8 46
-5 0 -14 -7 -21 -15z"/>
<path d="M1285 2119 c-77 -44 -144 -86 -150 -92 -5 -6 1 -4 15 4 14 9 82 48
153 88 109 63 137 81 125 81 -2 0 -66 -36 -143 -81z"/>
<path d="M1356 2125 c-59 -35 -111 -67 -115 -71 -3 -4 -1 -5 4 -2 105 54 243
139 223 138 -2 0 -52 -29 -112 -65z"/>
<path d="M794 1615 c4 -313 9 -571 11 -574 5 -4 9 26 6 43 -1 5 5 6 14 3 14
-6 15 49 13 530 l-3 536 -24 16 -24 16 7 -570z m34 28 c-1 -274 -4 -460 -8
-413 -7 104 -11 890 -4 902 3 4 7 8 10 8 2 0 3 -224 2 -497z"/>
<path d="M1534 2068 c-62 -48 -104 -127 -104 -195 0 -84 47 -116 118 -79 85
44 145 192 108 264 -14 28 -22 32 -55 32 -24 0 -49 -8 -67 -22z m54 -29 c4
-22 -36 -69 -59 -69 -24 0 -26 36 -3 68 18 26 57 27 62 1z m20 -127 c-3 -44
-5 -47 -58 -78 l-55 -32 -3 50 c-4 59 12 88 59 111 45 22 61 8 57 -51z"/>
<path d="M953 1925 c0 -38 2 -53 4 -32 2 20 2 52 0 70 -2 17 -4 1 -4 -38z"/>
<path d="M954 1765 c0 -49 1 -71 3 -48 2 23 2 64 0 90 -2 26 -3 8 -3 -42z"/>
<path d="M1432 1575 c-18 -13 -38 -26 -45 -28 -7 -2 -9 -8 -5 -12 8 -9 98 42
98 55 0 15 -11 11 -48 -15z"/>
<path d="M1550 1562 c-45 -27 -66 -45 -68 -61 -4 -22 -3 -22 45 6 82 47 95 58
92 75 -3 15 -14 12 -69 -20z"/>
<path d="M2000 1587 c-14 -7 -26 -23 -28 -35 -3 -22 12 -30 23 -12 9 15 25 12
25 -5 0 -14 11 -19 37 -16 9 1 11 -7 7 -28 -5 -23 -2 -32 16 -41 12 -6 23 -10
25 -8 8 8 -22 120 -37 138 -21 23 -33 25 -68 7z"/>
<path d="M1261 1466 c5 -19 8 -65 7 -102 -2 -52 -7 -68 -19 -69 -20 -3 -127
-64 -135 -77 -12 -19 5 -20 33 -1 25 17 78 43 88 43 2 0 6 -10 8 -22 4 -22 4
-22 6 2 1 14 10 36 21 50 23 29 28 142 8 185 -16 37 -28 31 -17 -9z"/>
<path d="M1938 1426 c-41 -36 -50 -53 -18 -36 13 7 20 7 20 1 0 -9 -31 -31
-44 -31 -3 0 -6 6 -6 13 -1 15 -91 77 -113 77 -15 0 -14 -3 3 -20 11 -11 23
-20 28 -20 4 -1 23 -14 42 -30 33 -29 65 -37 85 -22 8 6 48 103 42 102 -1 -1
-19 -16 -39 -34z"/>
<path d="M2004 1447 c-10 -27 10 -43 38 -30 22 11 22 11 3 19 -11 4 -23 12
-27 18 -4 6 -10 3 -14 -7z"/>
<path d="M1031 1389 c-17 -22 -37 -59 -45 -82 -15 -41 -28 -170 -17 -165 3 2
32 18 64 37 55 32 57 34 41 52 -13 14 -15 35 -13 108 2 50 3 91 2 91 -2 0 -16
-18 -32 -41z m9 -84 c0 -8 -5 -15 -10 -15 -6 0 -4 -10 5 -23 17 -26 9 -43 -12
-26 -19 16 -17 79 2 79 8 0 15 -7 15 -15z"/>
<path d="M1420 1389 l-65 -39 0 -50 c0 -49 1 -51 48 -80 45 -28 47 -31 47 -74
0 -25 -5 -46 -12 -48 -8 -3 -12 -58 -15 -183 -3 -174 -4 -179 -31 -221 -15
-24 -30 -44 -33 -44 -3 0 -28 -16 -54 -36 -59 -46 -290 -164 -319 -164 -11 0
-50 19 -86 43 l-65 42 -3 178 c-1 109 1 177 7 177 6 0 27 -10 48 -22 50 -29
36 -13 -24 26 -35 23 -47 37 -45 52 1 11 -2 31 -7 45 -7 16 -9 -55 -8 -226 l2
-249 90 -53 c62 -37 95 -51 110 -47 11 4 98 51 193 107 180 104 234 150 246
209 3 17 6 105 6 196 0 158 1 167 23 190 20 22 22 36 27 168 3 93 1 144 -5
143 -5 0 -39 -18 -75 -40z m45 -49 c8 -24 4 -120 -6 -125 -3 -3 -15 3 -26 13
-49 42 -54 99 -11 120 32 15 36 14 43 -8z"/>
<path d="M1800 1295 c-17 -21 2 -67 25 -59 11 5 15 0 13 -17 -4 -33 34 -38 56
-7 21 30 20 61 -2 81 -23 21 -75 22 -92 2z"/>
<path d="M1593 1255 c0 -28 21 -52 32 -35 3 5 -2 21 -13 35 l-19 25 0 -25z"/>
<path d="M1955 1218 c-11 -71 -14 -212 -3 -225 11 -13 86 -17 124 -7 19 5 22
15 28 103 4 59 3 108 -3 124 -10 25 -14 26 -54 21 -26 -4 -53 -2 -65 5 -19 10
-22 8 -27 -21z m115 -97 c0 -84 -9 -102 -55 -108 -31 -5 -37 7 -37 78 -1 79
15 109 59 109 l33 0 0 -79z"/>
<path d="M1183 1099 c-29 -17 -53 -33 -53 -36 0 -5 89 44 105 58 16 16 1 9
-52 -22z"/>
<path d="M1773 1000 c0 -41 2 -58 4 -37 2 20 2 54 0 75 -2 20 -4 3 -4 -38z"/>
<path d="M1017 1000 c-29 -23 -67 -81 -67 -101 1 -8 7 1 16 20 8 19 30 49 50
67 40 38 40 45 1 14z"/>
<path d="M2092 939 c-1 -9 -5 -32 -8 -50 -4 -28 -3 -31 6 -16 6 9 9 32 7 50
-2 17 -5 25 -5 16z"/>
<path d="M1986 917 c11 -38 19 -47 33 -38 16 10 1 45 -24 55 -13 5 -15 1 -9
-17z"/>
<path d="M1895 869 c-11 -4 -46 -8 -79 -8 l-59 -1 8 -52 c4 -29 11 -100 14
-158 6 -99 7 -105 29 -108 20 -3 22 0 22 47 0 27 -4 52 -9 56 -6 3 -9 13 -9
23 1 9 -2 45 -6 79 -7 56 -6 62 12 72 34 18 44 14 38 -16 -3 -16 -7 -75 -9
-133 -2 -100 -1 -105 19 -108 26 -4 34 32 34 153 0 44 5 98 10 120 5 22 8 40
7 41 -1 1 -11 -2 -22 -7z"/>
<path d="M2022 840 c-7 -11 -17 -20 -23 -20 -5 0 -7 6 -3 13 5 8 2 8 -9 -2
-20 -16 -22 -41 -4 -41 14 0 67 50 67 63 0 14 -15 7 -28 -13z"/>
<path d="M2036 794 c-18 -47 5 -85 31 -51 13 16 22 67 12 67 -4 0 -9 -10 -11
-22 -2 -13 -7 -21 -13 -18 -5 3 -8 13 -7 23 4 21 -4 22 -12 1z"/>
<path d="M1201 709 c-23 -24 -28 -64 -10 -75 6 -3 9 -22 7 -40 -2 -19 -1 -34
2 -34 20 0 39 31 44 70 2 25 6 56 8 70 4 33 -24 38 -51 9z"/>
<path d="M1723 553 c-6 -15 -1 -20 23 -26 4 -1 8 6 10 15 3 23 -25 32 -33 11z"/>
</g>
</svg>
