<svg width="59" height="52" viewBox="0 0 59 52" fill="none" xmlns="http://www.w3.org/2000/svg">
<path d="M57 26C57 40.3594 44.6878 52 29.5 52C14.3122 52 2 40.3594 2 26C2 11.6406 14.3122 0 29.5 0C44.6878 -2.93873e-05 57 11.6406 57 26Z" fill="white" fill-opacity="0.82"/>
<path d="M56.5 26C56.5 40.0572 44.4385 51.5 29.5 51.5C14.5615 51.5 2.5 40.0572 2.5 26C2.5 11.9428 14.5615 0.5 29.5 0.5C44.4385 0.499971 56.5 11.9428 56.5 26Z" stroke="url(#paint0_linear_16_8)" stroke-opacity="0.25"/>
<path opacity="0.73" d="M10.5222 42.9528C9.93934 43.3681 9.27293 43.5714 8.52297 43.5629C7.78865 43.5546 7.19707 43.3603 6.74823 42.9802C6.3152 42.5846 6.10153 42.1369 6.10721 41.6369C6.11289 41.1369 6.19519 40.7706 6.35409 40.5381C6.80417 40.8088 7.52136 40.9498 8.50567 40.961C8.89627 40.9654 9.32815 40.775 9.80131 40.3897C10.2746 39.9888 10.6559 39.4384 10.9452 38.7386L11.0701 27.7471C11.0784 27.0128 10.9284 26.4641 10.62 26.1012C10.1577 25.5334 9.36717 24.9697 8.24846 24.4101C9.39523 23.8762 10.1191 23.4313 10.42 23.0753C10.8955 22.4869 11.1374 21.8256 11.1457 21.0913L11.2853 10.8734C10.9215 9.88486 10.0991 9.3833 8.8179 9.36873C8.16169 9.36127 7.67584 9.48857 7.36034 9.75063C7.20641 9.54574 7.13131 9.27925 7.13504 8.95114C7.13877 8.62304 7.21245 8.32698 7.35608 8.06297C7.49972 7.79896 7.69768 7.56682 7.94998 7.36655C8.48581 6.96637 9.19901 6.77134 10.0896 6.78146C10.9801 6.79158 11.7115 7.05772 12.2838 7.57989C12.8052 7.07016 13.4097 6.8192 14.0971 6.82701C14.7846 6.83483 15.3672 7.13053 15.845 7.71412C16.4609 7.14296 17.0032 6.86004 17.4719 6.86537C17.9406 6.8707 18.2995 6.91384 18.5486 6.99481C18.7977 7.07577 19.046 7.22704 19.2935 7.44861C19.7891 7.8449 20.3035 8.63986 20.8368 9.8335L29.601 28.5671L37.2143 10.3947L37.8878 8.8788C38.2882 8.02392 38.6611 7.52032 39.0067 7.36798C39.3523 7.20003 39.7517 7.11862 40.2048 7.12377C40.6735 7.1291 41.1481 7.30638 41.6286 7.65562C42.2262 7.31864 43.0015 7.15556 43.9546 7.1664C44.9233 7.17741 45.7562 7.44471 46.4534 7.96829C47.0843 7.4598 47.7356 7.20938 48.4074 7.21701C49.0949 7.22483 49.6255 7.28555 49.9992 7.39918C50.3886 7.51299 50.7228 7.66523 51.0019 7.85592C51.5908 8.28451 51.8817 8.81129 51.8746 9.43625C51.871 9.74873 51.782 10.0212 51.6075 10.2536C51.2668 9.98407 50.8308 9.84629 50.2996 9.84025C49.1122 9.82675 48.3012 10.3723 47.8668 11.4768L47.7528 21.5074C47.7441 22.2729 47.9016 22.8451 48.2255 23.2238C48.7341 23.839 49.5169 24.3948 50.5739 24.8912C49.4269 25.4407 48.6952 25.8934 48.3786 26.2492C47.9191 26.8065 47.6853 27.4445 47.6771 28.1632L47.5468 39.6234C48.0646 40.8168 49.0187 41.4215 50.4092 41.4373C50.9404 41.4433 51.3794 41.3155 51.7262 41.0538C51.8954 41.2901 51.9782 41.5645 51.9746 41.877C51.9713 42.1738 51.8743 42.454 51.6838 42.7175C51.5089 42.9811 51.2642 43.2049 50.9496 43.3889C50.2259 43.8182 49.4031 44.0276 48.4813 44.0171C47.5595 44.0066 46.703 43.7469 45.9119 43.2378C45.1719 43.7295 44.3332 43.97 43.3957 43.9593C42.3958 43.9479 41.5159 43.6879 40.756 43.1792C39.9535 43.6702 39.2085 43.9117 38.521 43.9039C37.8492 43.8963 37.2953 43.8274 36.8592 43.6975C36.423 43.5831 36.042 43.4226 35.7162 43.2157C35.049 42.8019 34.7188 42.2903 34.7257 41.6809C34.7293 41.3684 34.8183 41.096 34.9929 40.8636C35.3336 41.1331 35.7695 41.2709 36.3008 41.2769C37.6913 41.2927 38.6589 40.7099 39.2036 39.5286L39.4948 13.913L30.0974 36.4483L29.0636 38.7336C28.5668 39.8217 28.216 40.435 28.0113 40.5733C27.8223 40.7118 27.6652 40.7803 27.5402 40.7789C27.1496 40.7744 26.8766 40.7323 26.7213 40.6524L14.487 15.832L14.2265 38.7524C14.5151 39.4745 14.915 40.0416 15.4259 40.4537C15.9371 40.8501 16.513 41.052 17.1536 41.0593C17.7941 41.0666 18.3425 40.94 18.7986 40.6795C18.9673 40.9627 19.0488 41.3543 19.0431 41.8542C19.0376 42.3386 18.7905 42.7655 18.3019 43.135C17.8135 43.4888 17.1865 43.6614 16.4209 43.6527C15.6553 43.644 14.9545 43.4407 14.3183 43.0428C13.7514 43.427 13.1008 43.6149 12.3665 43.6066C11.6478 43.5984 11.033 43.3805 10.5222 42.9528ZM17.8141 13.8775C17.6552 14.1101 17.5733 14.4451 17.5683 14.8826C17.5539 16.1482 18.066 17.8338 19.1047 19.9395L27.4417 37.0744C27.5527 36.935 27.6107 36.6388 27.6159 36.1857C27.6313 34.8264 27.0056 32.827 25.7386 30.1874L17.8141 13.8775ZM41.4796 37.2574C42.2642 36.9694 42.7055 35.9509 42.8035 34.2019C42.9171 32.4531 42.9915 30.0319 43.0267 26.9384C43.0618 23.8448 43.0774 21.7902 43.0733 20.7744C43.085 19.7433 43.0866 18.9151 43.0781 18.29C43.0522 16.4458 42.8851 15.3345 42.5769 14.9559C42.2845 14.562 42.0062 14.301 41.742 14.173L41.4796 37.2574ZM13.9154 37.2488C13.914 37.3738 13.9207 37.4676 13.9356 37.5303L13.9154 37.2488ZM11.2906 37.2189C11.2742 37.2813 11.2654 37.3749 11.2639 37.4999L11.2906 37.2189Z" fill="black"/>
<defs>
<linearGradient id="paint0_linear_16_8" x1="29.5" y1="0" x2="29.5" y2="52" gradientUnits="userSpaceOnUse">
<stop offset="0.916427"/>
<stop offset="1" stop-color="#666666"/>
</linearGradient>
</defs>
</svg>
