<svg width="46" height="38" viewBox="0 0 46 38" fill="none" xmlns="http://www.w3.org/2000/svg">
<path d="M4.4375 36.8359C3.85938 37.2578 3.19531 37.4688 2.44531 37.4688C1.71094 37.4688 1.11719 37.2812 0.664062 36.9062C0.226562 36.5156 0.0078125 36.0703 0.0078125 35.5703C0.0078125 35.0703 0.0859375 34.7031 0.242188 34.4688C0.695312 34.7344 1.41406 34.8672 2.39844 34.8672C2.78906 34.8672 3.21875 34.6719 3.6875 34.2812C4.15625 33.875 4.53125 33.3203 4.8125 32.6172V21.625C4.8125 20.8906 4.65625 20.3438 4.34375 19.9844C3.875 19.4219 3.07812 18.8672 1.95312 18.3203C3.09375 17.7734 3.8125 17.3203 4.10938 16.9609C4.57812 16.3672 4.8125 15.7031 4.8125 14.9688L4.83594 4.75C4.46094 3.76562 3.63281 3.27344 2.35156 3.27344C1.69531 3.27344 1.21094 3.40625 0.898438 3.67188C0.742188 3.46875 0.664062 3.20312 0.664062 2.875C0.664062 2.54688 0.734375 2.25 0.875 1.98438C1.01562 1.71875 1.21094 1.48438 1.46094 1.28125C1.99219 0.875 2.70312 0.671875 3.59375 0.671875C4.48438 0.671875 5.21875 0.929688 5.79688 1.44531C6.3125 0.929688 6.91406 0.671875 7.60156 0.671875C8.28906 0.671875 8.875 0.960937 9.35938 1.53906C9.96875 0.960937 10.5078 0.671875 10.9766 0.671875C11.4453 0.671875 11.8047 0.710938 12.0547 0.789062C12.3047 0.867187 12.5547 1.01563 12.8047 1.23438C13.3047 1.625 13.8281 2.41406 14.375 3.60156L23.3516 22.2344L30.7578 3.97656L31.4141 2.45312C31.8047 1.59375 32.1719 1.08594 32.5156 0.929688C32.8594 0.757813 33.2578 0.671875 33.7109 0.671875C34.1797 0.671875 34.6562 0.84375 35.1406 1.1875C35.7344 0.84375 36.5078 0.671875 37.4609 0.671875C38.4297 0.671875 39.2656 0.929688 39.9688 1.44531C40.5938 0.929688 41.2422 0.671875 41.9141 0.671875C42.6016 0.671875 43.1328 0.726562 43.5078 0.835938C43.8984 0.945313 44.2344 1.09375 44.5156 1.28125C45.1094 1.70312 45.4062 2.22656 45.4062 2.85156C45.4062 3.16406 45.3203 3.4375 45.1484 3.67188C44.8047 3.40625 44.3672 3.27344 43.8359 3.27344C42.6484 3.27344 41.8438 3.82813 41.4219 4.9375V14.9688C41.4219 15.7344 41.5859 16.3047 41.9141 16.6797C42.4297 17.2891 43.2188 17.8359 44.2812 18.3203C43.1406 18.8828 42.4141 19.3438 42.1016 19.7031C41.6484 20.2656 41.4219 20.9062 41.4219 21.625V33.0859C41.9531 34.2734 42.9141 34.8672 44.3047 34.8672C44.8359 34.8672 45.2734 34.7344 45.6172 34.4688C45.7891 34.7031 45.875 34.9766 45.875 35.2891C45.875 35.5859 45.7812 35.8672 45.5938 36.1328C45.4219 36.3984 45.1797 36.625 44.8672 36.8125C44.1484 37.25 43.3281 37.4688 42.4062 37.4688C41.4844 37.4688 40.625 37.2188 39.8281 36.7188C39.0938 37.2188 38.2578 37.4688 37.3203 37.4688C36.3203 37.4688 35.4375 37.2188 34.6719 36.7188C33.875 37.2188 33.1328 37.4688 32.4453 37.4688C31.7734 37.4688 31.2188 37.4062 30.7812 37.2812C30.3438 37.1719 29.9609 37.0156 29.6328 36.8125C28.9609 36.4062 28.625 35.8984 28.625 35.2891C28.625 34.9766 28.7109 34.7031 28.8828 34.4688C29.2266 34.7344 29.6641 34.8672 30.1953 34.8672C31.5859 34.8672 32.5469 34.2734 33.0781 33.0859V7.46875L23.9375 30.1094L22.9297 32.4062C22.4453 33.5 22.1016 34.1172 21.8984 34.2578C21.7109 34.3984 21.5547 34.4688 21.4297 34.4688C21.0391 34.4688 20.7656 34.4297 20.6094 34.3516L8.09375 9.67188V32.5938C8.39062 33.3125 8.79688 33.875 9.3125 34.2812C9.82812 34.6719 10.4062 34.8672 11.0469 34.8672C11.6875 34.8672 12.2344 34.7344 12.6875 34.4688C12.8594 34.75 12.9453 35.1406 12.9453 35.6406C12.9453 36.125 12.7031 36.5547 12.2188 36.9297C11.7344 37.2891 11.1094 37.4688 10.3438 37.4688C9.57812 37.4688 8.875 37.2734 8.23438 36.8828C7.67188 37.2734 7.02344 37.4688 6.28906 37.4688C5.57031 37.4688 4.95312 37.2578 4.4375 36.8359ZM11.3984 7.67969C11.2422 7.91406 11.1641 8.25 11.1641 8.6875C11.1641 9.95312 11.6953 11.6328 12.7578 13.7266L21.2891 30.7656C21.3984 30.625 21.4531 30.3281 21.4531 29.875C21.4531 28.5156 20.8047 26.5234 19.5078 23.8984L11.3984 7.67969ZM35.3281 30.7891C36.1094 30.4922 36.5391 29.4688 36.6172 27.7188C36.7109 25.9688 36.7578 23.5469 36.7578 20.4531C36.7578 17.3594 36.75 15.3047 36.7344 14.2891C36.7344 13.2578 36.7266 12.4297 36.7109 11.8047C36.6641 9.96094 36.4844 8.85156 36.1719 8.47656C35.875 8.08594 35.5938 7.82812 35.3281 7.70312V30.7891ZM7.76562 31.0938C7.76562 31.2188 7.77344 31.3125 7.78906 31.375L7.76562 31.0938ZM5.14062 31.0938C5.125 31.1562 5.11719 31.25 5.11719 31.375L5.14062 31.0938Z" fill="black"/>
</svg>
